<mxfile host="app.diagrams.net" agent="Mozilla/5.0 (Windows NT 10.0; Win64; x64) AppleWebKit/537.36 (KHTML, like Gecko) Chrome/140.0.0.0 Safari/537.36" version="28.2.5" pages="2">
  <diagram name="Page-1" id="x1OhA_-38eUH34pju4il">
    <mxGraphModel dx="2565" dy="1522" grid="0" gridSize="10" guides="1" tooltips="1" connect="1" arrows="1" fold="1" page="0" pageScale="1" pageWidth="827" pageHeight="1169" math="0" shadow="0">
      <root>
        <mxCell id="0" />
        <mxCell id="1" parent="0" />
        <mxCell id="IL8CQ9HAOLsPsETkaRRA-170" value="" style="group" vertex="1" connectable="0" parent="1">
          <mxGeometry x="-693" y="-689" width="1757" height="3799" as="geometry" />
        </mxCell>
        <mxCell id="IL8CQ9HAOLsPsETkaRRA-148" value="" style="rounded=0;whiteSpace=wrap;html=1;dashed=1;" vertex="1" parent="IL8CQ9HAOLsPsETkaRRA-170">
          <mxGeometry x="1105" y="3249" width="273" height="450" as="geometry" />
        </mxCell>
        <mxCell id="IL8CQ9HAOLsPsETkaRRA-146" value="" style="rounded=0;whiteSpace=wrap;html=1;" vertex="1" parent="IL8CQ9HAOLsPsETkaRRA-170">
          <mxGeometry x="610" y="3095" width="1147" height="704" as="geometry" />
        </mxCell>
        <mxCell id="AJ37tBQN5iwFO-2dcgXH-24" value="" style="rounded=0;whiteSpace=wrap;html=1;" parent="IL8CQ9HAOLsPsETkaRRA-170" vertex="1">
          <mxGeometry x="32" y="686" width="718" height="404" as="geometry" />
        </mxCell>
        <mxCell id="AJ37tBQN5iwFO-2dcgXH-26" value="&lt;font style=&quot;font-size: 25px;&quot;&gt;High Level Project Architecture(Function App)&lt;/font&gt;" style="text;html=1;align=center;verticalAlign=middle;whiteSpace=wrap;rounded=0;" parent="IL8CQ9HAOLsPsETkaRRA-170" vertex="1">
          <mxGeometry x="143" y="714" width="533" height="30" as="geometry" />
        </mxCell>
        <mxCell id="AJ37tBQN5iwFO-2dcgXH-42" value="" style="group;fillColor=#f8cecc;strokeColor=#b85450;" parent="IL8CQ9HAOLsPsETkaRRA-170" vertex="1" connectable="0">
          <mxGeometry width="997" height="474" as="geometry" />
        </mxCell>
        <mxCell id="AJ37tBQN5iwFO-2dcgXH-18" value="" style="rounded=0;whiteSpace=wrap;html=1;" parent="AJ37tBQN5iwFO-2dcgXH-42" vertex="1">
          <mxGeometry width="997" height="474" as="geometry" />
        </mxCell>
        <mxCell id="AJ37tBQN5iwFO-2dcgXH-3" value="UI(React)" style="rounded=1;whiteSpace=wrap;html=1;fillColor=#dae8fc;strokeColor=#6c8ebf;movable=1;resizable=1;rotatable=1;deletable=1;editable=1;locked=0;connectable=1;" parent="AJ37tBQN5iwFO-2dcgXH-42" vertex="1">
          <mxGeometry x="38" y="161" width="120" height="60" as="geometry" />
        </mxCell>
        <mxCell id="AJ37tBQN5iwFO-2dcgXH-17" value="&lt;font style=&quot;font-size: 25px;&quot;&gt;High Level Project Architecture(Web)&lt;/font&gt;" style="text;html=1;align=center;verticalAlign=middle;whiteSpace=wrap;rounded=0;" parent="AJ37tBQN5iwFO-2dcgXH-42" vertex="1">
          <mxGeometry x="291" y="6" width="450" height="30" as="geometry" />
        </mxCell>
        <mxCell id="AJ37tBQN5iwFO-2dcgXH-20" value="" style="group" parent="AJ37tBQN5iwFO-2dcgXH-42" vertex="1" connectable="0">
          <mxGeometry x="207" y="60" width="598" height="269" as="geometry" />
        </mxCell>
        <mxCell id="AJ37tBQN5iwFO-2dcgXH-10" value="" style="rounded=1;whiteSpace=wrap;html=1;dashed=1;movable=1;resizable=1;rotatable=1;deletable=1;editable=1;locked=0;connectable=1;" parent="AJ37tBQN5iwFO-2dcgXH-20" vertex="1">
          <mxGeometry width="598" height="269" as="geometry" />
        </mxCell>
        <mxCell id="AJ37tBQN5iwFO-2dcgXH-4" value="Controller" style="whiteSpace=wrap;html=1;rounded=1;fillColor=#d5e8d4;strokeColor=#82b366;movable=1;resizable=1;rotatable=1;deletable=1;editable=1;locked=0;connectable=1;" parent="AJ37tBQN5iwFO-2dcgXH-20" vertex="1">
          <mxGeometry x="49" y="103" width="120" height="60" as="geometry" />
        </mxCell>
        <mxCell id="QjuW9BJIIYtECZ0wkGti-5" style="edgeStyle=none;curved=1;rounded=0;orthogonalLoop=1;jettySize=auto;html=1;fontSize=12;startSize=8;endSize=8;" parent="AJ37tBQN5iwFO-2dcgXH-20" source="AJ37tBQN5iwFO-2dcgXH-6" target="QjuW9BJIIYtECZ0wkGti-4" edge="1">
          <mxGeometry relative="1" as="geometry" />
        </mxCell>
        <mxCell id="AJ37tBQN5iwFO-2dcgXH-6" value="Repository" style="whiteSpace=wrap;html=1;rounded=1;fillColor=#fff2cc;strokeColor=#d6b656;movable=1;resizable=1;rotatable=1;deletable=1;editable=1;locked=0;connectable=1;" parent="AJ37tBQN5iwFO-2dcgXH-20" vertex="1">
          <mxGeometry x="233" y="103" width="120" height="60" as="geometry" />
        </mxCell>
        <mxCell id="AJ37tBQN5iwFO-2dcgXH-8" value="Gateway" style="whiteSpace=wrap;html=1;rounded=1;fillColor=#e1d5e7;strokeColor=#9673a6;movable=1;resizable=1;rotatable=1;deletable=1;editable=1;locked=0;connectable=1;" parent="AJ37tBQN5iwFO-2dcgXH-20" vertex="1">
          <mxGeometry x="411" y="99" width="120" height="60" as="geometry" />
        </mxCell>
        <mxCell id="AJ37tBQN5iwFO-2dcgXH-7" value="" style="edgeStyle=none;curved=1;rounded=0;orthogonalLoop=1;jettySize=auto;html=1;fontSize=12;startSize=8;endSize=8;movable=1;resizable=1;rotatable=1;deletable=1;editable=1;locked=0;connectable=1;" parent="AJ37tBQN5iwFO-2dcgXH-20" source="AJ37tBQN5iwFO-2dcgXH-4" target="AJ37tBQN5iwFO-2dcgXH-6" edge="1">
          <mxGeometry relative="1" as="geometry" />
        </mxCell>
        <mxCell id="AJ37tBQN5iwFO-2dcgXH-9" value="" style="edgeStyle=none;curved=1;rounded=0;orthogonalLoop=1;jettySize=auto;html=1;fontSize=12;startSize=8;endSize=8;movable=1;resizable=1;rotatable=1;deletable=1;editable=1;locked=0;connectable=1;" parent="AJ37tBQN5iwFO-2dcgXH-20" source="AJ37tBQN5iwFO-2dcgXH-6" target="AJ37tBQN5iwFO-2dcgXH-8" edge="1">
          <mxGeometry relative="1" as="geometry" />
        </mxCell>
        <mxCell id="QjuW9BJIIYtECZ0wkGti-2" value="SQL Gateway" style="rounded=1;whiteSpace=wrap;html=1;fillColor=#f8cecc;strokeColor=#b85450;" parent="AJ37tBQN5iwFO-2dcgXH-20" vertex="1">
          <mxGeometry x="431" y="8" width="120" height="60" as="geometry" />
        </mxCell>
        <mxCell id="QjuW9BJIIYtECZ0wkGti-6" style="edgeStyle=none;curved=1;rounded=0;orthogonalLoop=1;jettySize=auto;html=1;fontSize=12;startSize=8;endSize=8;" parent="AJ37tBQN5iwFO-2dcgXH-20" source="QjuW9BJIIYtECZ0wkGti-4" target="QjuW9BJIIYtECZ0wkGti-2" edge="1">
          <mxGeometry relative="1" as="geometry" />
        </mxCell>
        <mxCell id="QjuW9BJIIYtECZ0wkGti-4" value="If SQl Enabled" style="rhombus;whiteSpace=wrap;html=1;" parent="AJ37tBQN5iwFO-2dcgXH-20" vertex="1">
          <mxGeometry x="243" y="-10" width="106" height="91" as="geometry" />
        </mxCell>
        <mxCell id="AJ37tBQN5iwFO-2dcgXH-23" style="edgeStyle=none;curved=1;rounded=0;orthogonalLoop=1;jettySize=auto;html=1;fontSize=12;startSize=8;endSize=8;" parent="AJ37tBQN5iwFO-2dcgXH-42" source="AJ37tBQN5iwFO-2dcgXH-3" target="AJ37tBQN5iwFO-2dcgXH-4" edge="1">
          <mxGeometry relative="1" as="geometry" />
        </mxCell>
        <mxCell id="AJ37tBQN5iwFO-2dcgXH-16" style="edgeStyle=none;curved=1;rounded=0;orthogonalLoop=1;jettySize=auto;html=1;fontSize=12;startSize=8;endSize=8;exitX=1;exitY=0.5;exitDx=0;exitDy=0;movable=1;resizable=1;rotatable=1;deletable=1;editable=1;locked=0;connectable=1;" parent="AJ37tBQN5iwFO-2dcgXH-42" source="AJ37tBQN5iwFO-2dcgXH-8" target="AJ37tBQN5iwFO-2dcgXH-13" edge="1">
          <mxGeometry relative="1" as="geometry">
            <mxPoint x="821" y="189" as="targetPoint" />
          </mxGeometry>
        </mxCell>
        <mxCell id="AJ37tBQN5iwFO-2dcgXH-13" value="Dataverse" style="image;aspect=fixed;html=1;points=[];align=center;fontSize=12;image=img/lib/azure2/power_platform/Dataverse.svg;movable=1;resizable=1;rotatable=1;deletable=1;editable=1;locked=0;connectable=1;" parent="AJ37tBQN5iwFO-2dcgXH-42" vertex="1">
          <mxGeometry x="858" y="172" width="44.12" height="34" as="geometry" />
        </mxCell>
        <mxCell id="AJ37tBQN5iwFO-2dcgXH-52" style="edgeStyle=none;curved=1;rounded=0;orthogonalLoop=1;jettySize=auto;html=1;fontSize=12;startSize=8;endSize=8;" parent="AJ37tBQN5iwFO-2dcgXH-42" source="AJ37tBQN5iwFO-2dcgXH-6" edge="1">
          <mxGeometry relative="1" as="geometry">
            <mxPoint x="500" y="355" as="targetPoint" />
          </mxGeometry>
        </mxCell>
        <mxCell id="AJ37tBQN5iwFO-2dcgXH-53" style="edgeStyle=none;curved=1;rounded=0;orthogonalLoop=1;jettySize=auto;html=1;fontSize=12;startSize=8;endSize=8;" parent="AJ37tBQN5iwFO-2dcgXH-42" source="AJ37tBQN5iwFO-2dcgXH-8" edge="1">
          <mxGeometry relative="1" as="geometry">
            <mxPoint x="678" y="355" as="targetPoint" />
          </mxGeometry>
        </mxCell>
        <mxCell id="AJ37tBQN5iwFO-2dcgXH-55" value="" style="group" parent="AJ37tBQN5iwFO-2dcgXH-42" vertex="1" connectable="0">
          <mxGeometry x="366" y="361" width="432" height="83" as="geometry" />
        </mxCell>
        <mxCell id="AJ37tBQN5iwFO-2dcgXH-57" value="" style="group" parent="AJ37tBQN5iwFO-2dcgXH-55" vertex="1" connectable="0">
          <mxGeometry x="-1" width="432" height="83" as="geometry" />
        </mxCell>
        <mxCell id="AJ37tBQN5iwFO-2dcgXH-50" value="" style="rounded=1;whiteSpace=wrap;html=1;" parent="AJ37tBQN5iwFO-2dcgXH-57" vertex="1">
          <mxGeometry width="432" height="83" as="geometry" />
        </mxCell>
        <mxCell id="AJ37tBQN5iwFO-2dcgXH-56" value="" style="group" parent="AJ37tBQN5iwFO-2dcgXH-57" vertex="1" connectable="0">
          <mxGeometry x="55" y="12" width="345" height="46" as="geometry" />
        </mxCell>
        <mxCell id="AJ37tBQN5iwFO-2dcgXH-14" value="Azure Storage" style="image;aspect=fixed;html=1;points=[];align=center;fontSize=12;image=img/lib/azure2/storage/Storage_Accounts.svg;movable=1;resizable=1;rotatable=1;deletable=1;editable=1;locked=0;connectable=1;" parent="AJ37tBQN5iwFO-2dcgXH-56" vertex="1">
          <mxGeometry width="38.75" height="31" as="geometry" />
        </mxCell>
        <mxCell id="AJ37tBQN5iwFO-2dcgXH-12" value="Azure Service Bus" style="image;aspect=fixed;html=1;points=[];align=center;fontSize=12;image=img/lib/azure2/integration/Service_Bus.svg;movable=1;resizable=1;rotatable=1;deletable=1;editable=1;locked=0;connectable=1;" parent="AJ37tBQN5iwFO-2dcgXH-56" vertex="1">
          <mxGeometry x="132" width="38.53" height="34" as="geometry" />
        </mxCell>
        <mxCell id="AJ37tBQN5iwFO-2dcgXH-15" value="Other External Services" style="rounded=1;whiteSpace=wrap;html=1;fillColor=#f5f5f5;fontColor=#333333;strokeColor=#666666;strokeWidth=3;movable=1;resizable=1;rotatable=1;deletable=1;editable=1;locked=0;connectable=1;" parent="AJ37tBQN5iwFO-2dcgXH-56" vertex="1">
          <mxGeometry x="244" width="101" height="46" as="geometry" />
        </mxCell>
        <mxCell id="AJ37tBQN5iwFO-2dcgXH-48" style="edgeStyle=none;curved=1;rounded=0;orthogonalLoop=1;jettySize=auto;html=1;fontSize=12;startSize=8;endSize=8;" parent="IL8CQ9HAOLsPsETkaRRA-170" source="AJ37tBQN5iwFO-2dcgXH-43" target="AJ37tBQN5iwFO-2dcgXH-44" edge="1">
          <mxGeometry relative="1" as="geometry" />
        </mxCell>
        <mxCell id="AJ37tBQN5iwFO-2dcgXH-43" value="Function App" style="rounded=1;whiteSpace=wrap;html=1;fillColor=#dae8fc;strokeColor=#6c8ebf;" parent="IL8CQ9HAOLsPsETkaRRA-170" vertex="1">
          <mxGeometry x="59" y="843" width="149" height="49" as="geometry" />
        </mxCell>
        <mxCell id="AJ37tBQN5iwFO-2dcgXH-47" value="" style="edgeStyle=none;curved=1;rounded=0;orthogonalLoop=1;jettySize=auto;html=1;fontSize=12;startSize=8;endSize=8;" parent="IL8CQ9HAOLsPsETkaRRA-170" source="AJ37tBQN5iwFO-2dcgXH-44" target="AJ37tBQN5iwFO-2dcgXH-46" edge="1">
          <mxGeometry relative="1" as="geometry" />
        </mxCell>
        <mxCell id="AJ37tBQN5iwFO-2dcgXH-44" value="Repository" style="rounded=1;whiteSpace=wrap;html=1;fillColor=#fff2cc;strokeColor=#d6b656;" parent="IL8CQ9HAOLsPsETkaRRA-170" vertex="1">
          <mxGeometry x="261" y="837.5" width="120" height="60" as="geometry" />
        </mxCell>
        <mxCell id="AJ37tBQN5iwFO-2dcgXH-46" value="Gateway" style="whiteSpace=wrap;html=1;rounded=1;fillColor=#e1d5e7;strokeColor=#9673a6;" parent="IL8CQ9HAOLsPsETkaRRA-170" vertex="1">
          <mxGeometry x="420" y="837.5" width="120" height="60" as="geometry" />
        </mxCell>
        <mxCell id="AJ37tBQN5iwFO-2dcgXH-49" style="edgeStyle=none;curved=1;rounded=0;orthogonalLoop=1;jettySize=auto;html=1;entryX=0.016;entryY=0.386;entryDx=0;entryDy=0;entryPerimeter=0;fontSize=12;startSize=8;endSize=8;" parent="IL8CQ9HAOLsPsETkaRRA-170" source="AJ37tBQN5iwFO-2dcgXH-46" edge="1">
          <mxGeometry relative="1" as="geometry">
            <mxPoint x="576.24" y="866.748" as="targetPoint" />
          </mxGeometry>
        </mxCell>
        <mxCell id="AJ37tBQN5iwFO-2dcgXH-54" value="Dataverse" style="image;aspect=fixed;html=1;points=[];align=center;fontSize=12;image=img/lib/azure2/power_platform/Dataverse.svg;movable=1;resizable=1;rotatable=1;deletable=1;editable=1;locked=0;connectable=1;" parent="IL8CQ9HAOLsPsETkaRRA-170" vertex="1">
          <mxGeometry x="579" y="843" width="44.12" height="34" as="geometry" />
        </mxCell>
        <mxCell id="AJ37tBQN5iwFO-2dcgXH-58" value="" style="group" parent="IL8CQ9HAOLsPsETkaRRA-170" vertex="1" connectable="0">
          <mxGeometry x="132" y="964" width="432" height="83" as="geometry" />
        </mxCell>
        <mxCell id="AJ37tBQN5iwFO-2dcgXH-59" value="" style="rounded=1;whiteSpace=wrap;html=1;" parent="AJ37tBQN5iwFO-2dcgXH-58" vertex="1">
          <mxGeometry width="432" height="83" as="geometry" />
        </mxCell>
        <mxCell id="AJ37tBQN5iwFO-2dcgXH-60" value="" style="group" parent="AJ37tBQN5iwFO-2dcgXH-58" vertex="1" connectable="0">
          <mxGeometry x="55" y="12" width="345" height="46" as="geometry" />
        </mxCell>
        <mxCell id="AJ37tBQN5iwFO-2dcgXH-61" value="Azure Storage" style="image;aspect=fixed;html=1;points=[];align=center;fontSize=12;image=img/lib/azure2/storage/Storage_Accounts.svg;movable=1;resizable=1;rotatable=1;deletable=1;editable=1;locked=0;connectable=1;" parent="AJ37tBQN5iwFO-2dcgXH-60" vertex="1">
          <mxGeometry width="38.75" height="31" as="geometry" />
        </mxCell>
        <mxCell id="AJ37tBQN5iwFO-2dcgXH-62" value="Azure Service Bus" style="image;aspect=fixed;html=1;points=[];align=center;fontSize=12;image=img/lib/azure2/integration/Service_Bus.svg;movable=1;resizable=1;rotatable=1;deletable=1;editable=1;locked=0;connectable=1;" parent="AJ37tBQN5iwFO-2dcgXH-60" vertex="1">
          <mxGeometry x="132" width="38.53" height="34" as="geometry" />
        </mxCell>
        <mxCell id="AJ37tBQN5iwFO-2dcgXH-63" value="Other External Services" style="rounded=1;whiteSpace=wrap;html=1;fillColor=#f5f5f5;fontColor=#333333;strokeColor=#666666;strokeWidth=3;movable=1;resizable=1;rotatable=1;deletable=1;editable=1;locked=0;connectable=1;" parent="AJ37tBQN5iwFO-2dcgXH-60" vertex="1">
          <mxGeometry x="244" width="101" height="46" as="geometry" />
        </mxCell>
        <mxCell id="AJ37tBQN5iwFO-2dcgXH-64" style="edgeStyle=none;curved=1;rounded=0;orthogonalLoop=1;jettySize=auto;html=1;entryX=0.44;entryY=0.025;entryDx=0;entryDy=0;entryPerimeter=0;fontSize=12;startSize=8;endSize=8;" parent="IL8CQ9HAOLsPsETkaRRA-170" source="AJ37tBQN5iwFO-2dcgXH-44" target="AJ37tBQN5iwFO-2dcgXH-59" edge="1">
          <mxGeometry relative="1" as="geometry" />
        </mxCell>
        <mxCell id="AJ37tBQN5iwFO-2dcgXH-65" style="edgeStyle=none;curved=1;rounded=0;orthogonalLoop=1;jettySize=auto;html=1;entryX=0.808;entryY=0.036;entryDx=0;entryDy=0;entryPerimeter=0;fontSize=12;startSize=8;endSize=8;" parent="IL8CQ9HAOLsPsETkaRRA-170" source="AJ37tBQN5iwFO-2dcgXH-46" target="AJ37tBQN5iwFO-2dcgXH-59" edge="1">
          <mxGeometry relative="1" as="geometry" />
        </mxCell>
        <mxCell id="QjuW9BJIIYtECZ0wkGti-7" style="edgeStyle=none;curved=1;rounded=0;orthogonalLoop=1;jettySize=auto;html=1;entryX=0;entryY=0;entryDx=0;entryDy=0;fontSize=12;startSize=8;endSize=8;" parent="IL8CQ9HAOLsPsETkaRRA-170" source="AJ37tBQN5iwFO-2dcgXH-43" target="AJ37tBQN5iwFO-2dcgXH-59" edge="1">
          <mxGeometry relative="1" as="geometry" />
        </mxCell>
        <mxCell id="IL8CQ9HAOLsPsETkaRRA-1" value="" style="rounded=0;whiteSpace=wrap;html=1;" vertex="1" parent="IL8CQ9HAOLsPsETkaRRA-170">
          <mxGeometry x="501" y="1445" width="1216" height="606" as="geometry" />
        </mxCell>
        <mxCell id="IL8CQ9HAOLsPsETkaRRA-2" value="&lt;font style=&quot;font-size: 25px;&quot;&gt;High Level Project Architecture(Web)&lt;/font&gt;" style="text;html=1;align=center;verticalAlign=middle;whiteSpace=wrap;rounded=0;" vertex="1" parent="IL8CQ9HAOLsPsETkaRRA-170">
          <mxGeometry x="517" y="1462" width="450" height="30" as="geometry" />
        </mxCell>
        <mxCell id="IL8CQ9HAOLsPsETkaRRA-3" value="" style="group;fillColor=#dae8fc;strokeColor=#6c8ebf;container=0;" vertex="1" connectable="0" parent="IL8CQ9HAOLsPsETkaRRA-170">
          <mxGeometry x="757" y="1514" width="598" height="385" as="geometry" />
        </mxCell>
        <mxCell id="IL8CQ9HAOLsPsETkaRRA-15" style="edgeStyle=none;curved=1;rounded=0;orthogonalLoop=1;jettySize=auto;html=1;fontSize=12;startSize=8;endSize=8;exitX=1;exitY=0.5;exitDx=0;exitDy=0;movable=1;resizable=1;rotatable=1;deletable=1;editable=1;locked=0;connectable=1;" edge="1" parent="IL8CQ9HAOLsPsETkaRRA-170" source="IL8CQ9HAOLsPsETkaRRA-8" target="IL8CQ9HAOLsPsETkaRRA-16">
          <mxGeometry relative="1" as="geometry">
            <mxPoint x="1371" y="1766" as="targetPoint" />
          </mxGeometry>
        </mxCell>
        <mxCell id="IL8CQ9HAOLsPsETkaRRA-16" value="Dataverse" style="image;aspect=fixed;html=1;points=[];align=center;fontSize=12;image=img/lib/azure2/power_platform/Dataverse.svg;movable=1;resizable=1;rotatable=1;deletable=1;editable=1;locked=0;connectable=1;" vertex="1" parent="IL8CQ9HAOLsPsETkaRRA-170">
          <mxGeometry x="1408" y="1749" width="44.12" height="34" as="geometry" />
        </mxCell>
        <mxCell id="IL8CQ9HAOLsPsETkaRRA-17" style="edgeStyle=none;curved=1;rounded=0;orthogonalLoop=1;jettySize=auto;html=1;fontSize=12;startSize=8;endSize=8;entryX=0.485;entryY=0.01;entryDx=0;entryDy=0;entryPerimeter=0;" edge="1" parent="IL8CQ9HAOLsPsETkaRRA-170" source="IL8CQ9HAOLsPsETkaRRA-7" target="IL8CQ9HAOLsPsETkaRRA-21">
          <mxGeometry relative="1" as="geometry">
            <mxPoint x="1050" y="1941" as="targetPoint" />
          </mxGeometry>
        </mxCell>
        <mxCell id="IL8CQ9HAOLsPsETkaRRA-18" style="edgeStyle=none;curved=1;rounded=0;orthogonalLoop=1;jettySize=auto;html=1;fontSize=12;startSize=8;endSize=8;" edge="1" parent="IL8CQ9HAOLsPsETkaRRA-170" source="IL8CQ9HAOLsPsETkaRRA-8">
          <mxGeometry relative="1" as="geometry">
            <mxPoint x="1228" y="1932" as="targetPoint" />
          </mxGeometry>
        </mxCell>
        <mxCell id="IL8CQ9HAOLsPsETkaRRA-19" value="" style="group" vertex="1" connectable="0" parent="IL8CQ9HAOLsPsETkaRRA-170">
          <mxGeometry x="796" y="1933" width="534" height="83" as="geometry" />
        </mxCell>
        <mxCell id="IL8CQ9HAOLsPsETkaRRA-20" value="" style="group" vertex="1" connectable="0" parent="IL8CQ9HAOLsPsETkaRRA-19">
          <mxGeometry x="-1.2361111111111112" width="534" height="83" as="geometry" />
        </mxCell>
        <mxCell id="IL8CQ9HAOLsPsETkaRRA-21" value="" style="rounded=1;whiteSpace=wrap;html=1;" vertex="1" parent="IL8CQ9HAOLsPsETkaRRA-20">
          <mxGeometry width="534" height="83" as="geometry" />
        </mxCell>
        <mxCell id="IL8CQ9HAOLsPsETkaRRA-22" value="" style="group" vertex="1" connectable="0" parent="IL8CQ9HAOLsPsETkaRRA-20">
          <mxGeometry x="67.98611111111111" y="12" width="426.45833333333337" height="46" as="geometry" />
        </mxCell>
        <mxCell id="IL8CQ9HAOLsPsETkaRRA-23" value="Azure Storage" style="image;aspect=fixed;html=1;points=[];align=center;fontSize=12;image=img/lib/azure2/storage/Storage_Accounts.svg;movable=1;resizable=1;rotatable=1;deletable=1;editable=1;locked=0;connectable=1;" vertex="1" parent="IL8CQ9HAOLsPsETkaRRA-22">
          <mxGeometry width="38.75" height="31" as="geometry" />
        </mxCell>
        <mxCell id="IL8CQ9HAOLsPsETkaRRA-24" value="Azure Service Bus" style="image;aspect=fixed;html=1;points=[];align=center;fontSize=12;image=img/lib/azure2/integration/Service_Bus.svg;movable=1;resizable=1;rotatable=1;deletable=1;editable=1;locked=0;connectable=1;" vertex="1" parent="IL8CQ9HAOLsPsETkaRRA-22">
          <mxGeometry x="163.16666666666669" width="38.53" height="34" as="geometry" />
        </mxCell>
        <mxCell id="IL8CQ9HAOLsPsETkaRRA-25" value="Other External Services" style="rounded=1;whiteSpace=wrap;html=1;fillColor=#f5f5f5;fontColor=#333333;strokeColor=#666666;strokeWidth=3;movable=1;resizable=1;rotatable=1;deletable=1;editable=1;locked=0;connectable=1;" vertex="1" parent="IL8CQ9HAOLsPsETkaRRA-22">
          <mxGeometry x="301.6111111111111" width="124.84722222222223" height="46" as="geometry" />
        </mxCell>
        <mxCell id="IL8CQ9HAOLsPsETkaRRA-53" value="UI(React)" style="rounded=1;whiteSpace=wrap;html=1;fillColor=#dae8fc;strokeColor=#6c8ebf;movable=1;resizable=1;rotatable=1;deletable=1;editable=1;locked=0;connectable=1;" vertex="1" parent="IL8CQ9HAOLsPsETkaRRA-170">
          <mxGeometry x="569" y="1654" width="120" height="60" as="geometry" />
        </mxCell>
        <mxCell id="IL8CQ9HAOLsPsETkaRRA-55" value="Azure SQL" style="verticalLabelPosition=bottom;html=1;verticalAlign=top;align=center;strokeColor=none;fillColor=#00BEF2;shape=mxgraph.azure.sql_database_sql_azure;" vertex="1" parent="IL8CQ9HAOLsPsETkaRRA-170">
          <mxGeometry x="1415" y="1639" width="58" height="66" as="geometry" />
        </mxCell>
        <mxCell id="IL8CQ9HAOLsPsETkaRRA-56" style="edgeStyle=none;curved=1;rounded=0;orthogonalLoop=1;jettySize=auto;html=1;entryX=0;entryY=0.5;entryDx=0;entryDy=0;entryPerimeter=0;fontSize=12;startSize=8;endSize=8;" edge="1" parent="IL8CQ9HAOLsPsETkaRRA-170" source="IL8CQ9HAOLsPsETkaRRA-11" target="IL8CQ9HAOLsPsETkaRRA-55">
          <mxGeometry relative="1" as="geometry" />
        </mxCell>
        <mxCell id="IL8CQ9HAOLsPsETkaRRA-57" value="1" style="ellipse;whiteSpace=wrap;html=1;aspect=fixed;rotation=0;gradientColor=#223548;strokeColor=none;gradientDirection=east;fillColor=#5b738b;rounded=0;pointerEvents=0;fontFamily=Helvetica;fontSize=16;fontColor=#FFFFFF;spacingTop=4;spacingBottom=4;spacingLeft=4;spacingRight=4;points=[];fontStyle=1" vertex="1" parent="IL8CQ9HAOLsPsETkaRRA-170">
          <mxGeometry x="747" y="1746" width="30" height="30" as="geometry" />
        </mxCell>
        <mxCell id="IL8CQ9HAOLsPsETkaRRA-4" value="" style="rounded=1;whiteSpace=wrap;html=1;dashed=1;movable=1;resizable=1;rotatable=1;deletable=1;editable=1;locked=0;connectable=1;" vertex="1" parent="IL8CQ9HAOLsPsETkaRRA-170">
          <mxGeometry x="756" y="1483.9442379182155" width="599" height="415.0557620817844" as="geometry" />
        </mxCell>
        <mxCell id="IL8CQ9HAOLsPsETkaRRA-5" value="Controller" style="whiteSpace=wrap;html=1;rounded=1;fillColor=#d5e8d4;strokeColor=#82b366;movable=1;resizable=1;rotatable=1;deletable=1;editable=1;locked=0;connectable=1;" vertex="1" parent="IL8CQ9HAOLsPsETkaRRA-170">
          <mxGeometry x="806" y="1661.4163568773233" width="120" height="85.8736059479554" as="geometry" />
        </mxCell>
        <mxCell id="IL8CQ9HAOLsPsETkaRRA-6" style="edgeStyle=none;curved=1;rounded=0;orthogonalLoop=1;jettySize=auto;html=1;fontSize=12;startSize=8;endSize=8;" edge="1" parent="IL8CQ9HAOLsPsETkaRRA-170" source="IL8CQ9HAOLsPsETkaRRA-7" target="IL8CQ9HAOLsPsETkaRRA-13">
          <mxGeometry relative="1" as="geometry" />
        </mxCell>
        <mxCell id="IL8CQ9HAOLsPsETkaRRA-7" value="Repository" style="whiteSpace=wrap;html=1;rounded=1;fillColor=#fff2cc;strokeColor=#d6b656;movable=1;resizable=1;rotatable=1;deletable=1;editable=1;locked=0;connectable=1;" vertex="1" parent="IL8CQ9HAOLsPsETkaRRA-170">
          <mxGeometry x="990" y="1661.4163568773233" width="120" height="85.8736059479554" as="geometry" />
        </mxCell>
        <mxCell id="IL8CQ9HAOLsPsETkaRRA-8" value="Gateway" style="whiteSpace=wrap;html=1;rounded=1;fillColor=#e1d5e7;strokeColor=#9673a6;movable=1;resizable=1;rotatable=1;deletable=1;editable=1;locked=0;connectable=1;" vertex="1" parent="IL8CQ9HAOLsPsETkaRRA-170">
          <mxGeometry x="1195" y="1743.0014498141263" width="120" height="85.8736059479554" as="geometry" />
        </mxCell>
        <mxCell id="IL8CQ9HAOLsPsETkaRRA-9" value="" style="edgeStyle=none;curved=1;rounded=0;orthogonalLoop=1;jettySize=auto;html=1;fontSize=12;startSize=8;endSize=8;movable=1;resizable=1;rotatable=1;deletable=1;editable=1;locked=0;connectable=1;" edge="1" parent="IL8CQ9HAOLsPsETkaRRA-170" source="IL8CQ9HAOLsPsETkaRRA-5" target="IL8CQ9HAOLsPsETkaRRA-7">
          <mxGeometry relative="1" as="geometry" />
        </mxCell>
        <mxCell id="IL8CQ9HAOLsPsETkaRRA-11" value="SQL Gateway" style="rounded=1;whiteSpace=wrap;html=1;fillColor=#f8cecc;strokeColor=#b85450;" vertex="1" parent="IL8CQ9HAOLsPsETkaRRA-170">
          <mxGeometry x="1188" y="1525.449814126394" width="120" height="85.8736059479554" as="geometry" />
        </mxCell>
        <mxCell id="IL8CQ9HAOLsPsETkaRRA-12" style="edgeStyle=none;curved=1;rounded=0;orthogonalLoop=1;jettySize=auto;html=1;fontSize=12;startSize=8;endSize=8;" edge="1" parent="IL8CQ9HAOLsPsETkaRRA-170" source="IL8CQ9HAOLsPsETkaRRA-13" target="IL8CQ9HAOLsPsETkaRRA-11">
          <mxGeometry relative="1" as="geometry" />
        </mxCell>
        <mxCell id="IL8CQ9HAOLsPsETkaRRA-13" value="If SQl Enabled" style="rhombus;whiteSpace=wrap;html=1;fillColor=#f5f5f5;fontColor=#333333;strokeColor=#666666;" vertex="1" parent="IL8CQ9HAOLsPsETkaRRA-170">
          <mxGeometry x="1000" y="1499.6877323420074" width="106" height="130.24163568773236" as="geometry" />
        </mxCell>
        <mxCell id="IL8CQ9HAOLsPsETkaRRA-59" value="2" style="ellipse;whiteSpace=wrap;html=1;aspect=fixed;rotation=0;gradientColor=#223548;strokeColor=none;gradientDirection=east;fillColor=#5b738b;rounded=0;pointerEvents=0;fontFamily=Helvetica;fontSize=16;fontColor=#FFFFFF;spacingTop=4;spacingBottom=4;spacingLeft=4;spacingRight=4;points=[];fontStyle=1" vertex="1" parent="IL8CQ9HAOLsPsETkaRRA-170">
          <mxGeometry x="943" y="1661.4163568773233" width="30" height="30" as="geometry" />
        </mxCell>
        <mxCell id="IL8CQ9HAOLsPsETkaRRA-60" value="3" style="ellipse;whiteSpace=wrap;html=1;aspect=fixed;rotation=0;gradientColor=#223548;strokeColor=none;gradientDirection=east;fillColor=#5b738b;rounded=0;pointerEvents=0;fontFamily=Helvetica;fontSize=16;fontColor=#FFFFFF;spacingTop=4;spacingBottom=4;spacingLeft=4;spacingRight=4;points=[];fontStyle=1" vertex="1" parent="IL8CQ9HAOLsPsETkaRRA-170">
          <mxGeometry x="1120" y="1655.6914498141264" width="30" height="30" as="geometry" />
        </mxCell>
        <mxCell id="IL8CQ9HAOLsPsETkaRRA-64" value="3.1" style="ellipse;whiteSpace=wrap;html=1;aspect=fixed;rotation=0;gradientColor=#A100C2;strokeColor=none;gradientDirection=east;fillColor=#F65AF2;rounded=0;pointerEvents=0;fontFamily=Helvetica;fontSize=16;fontColor=#FFFFFF;spacingTop=4;spacingBottom=4;spacingLeft=4;spacingRight=4;points=[];fontStyle=1" vertex="1" parent="IL8CQ9HAOLsPsETkaRRA-170">
          <mxGeometry x="1020" y="1618.4795539033457" width="30" height="30" as="geometry" />
        </mxCell>
        <mxCell id="IL8CQ9HAOLsPsETkaRRA-65" value="3.2" style="ellipse;whiteSpace=wrap;html=1;aspect=fixed;rotation=0;gradientColor=#A100C2;strokeColor=none;gradientDirection=east;fillColor=#F65AF2;rounded=0;pointerEvents=0;fontFamily=Helvetica;fontSize=16;fontColor=#FFFFFF;spacingTop=4;spacingBottom=4;spacingLeft=4;spacingRight=4;points=[];fontStyle=1" vertex="1" parent="IL8CQ9HAOLsPsETkaRRA-170">
          <mxGeometry x="1128" y="1525.449814126394" width="30" height="30" as="geometry" />
        </mxCell>
        <mxCell id="IL8CQ9HAOLsPsETkaRRA-66" value="3.2" style="ellipse;whiteSpace=wrap;html=1;aspect=fixed;rotation=0;gradientColor=#A100C2;strokeColor=none;gradientDirection=east;fillColor=#F65AF2;rounded=0;pointerEvents=0;fontFamily=Helvetica;fontSize=16;fontColor=#FFFFFF;spacingTop=4;spacingBottom=4;spacingLeft=4;spacingRight=4;points=[];fontStyle=1" vertex="1" parent="IL8CQ9HAOLsPsETkaRRA-170">
          <mxGeometry x="1325" y="1525.449814126394" width="30" height="30" as="geometry" />
        </mxCell>
        <mxCell id="IL8CQ9HAOLsPsETkaRRA-68" value="4" style="ellipse;whiteSpace=wrap;html=1;aspect=fixed;rotation=0;gradientColor=#223548;strokeColor=none;gradientDirection=east;fillColor=#5b738b;rounded=0;pointerEvents=0;fontFamily=Helvetica;fontSize=16;fontColor=#FFFFFF;spacingTop=4;spacingBottom=4;spacingLeft=4;spacingRight=4;points=[];fontStyle=1" vertex="1" parent="IL8CQ9HAOLsPsETkaRRA-170">
          <mxGeometry x="1315" y="1651.3977695167287" width="30" height="30" as="geometry" />
        </mxCell>
        <mxCell id="IL8CQ9HAOLsPsETkaRRA-77" value="Start" style="strokeWidth=2;html=1;shape=mxgraph.flowchart.start_2;whiteSpace=wrap;fillColor=#d5e8d4;strokeColor=#82b366;" vertex="1" parent="IL8CQ9HAOLsPsETkaRRA-170">
          <mxGeometry x="1030" y="2100" width="100" height="100" as="geometry" />
        </mxCell>
        <mxCell id="IL8CQ9HAOLsPsETkaRRA-82" value="" style="edgeStyle=none;curved=1;rounded=0;orthogonalLoop=1;jettySize=auto;html=1;fontSize=12;startSize=8;endSize=8;" edge="1" parent="IL8CQ9HAOLsPsETkaRRA-170" source="IL8CQ9HAOLsPsETkaRRA-78" target="IL8CQ9HAOLsPsETkaRRA-81">
          <mxGeometry relative="1" as="geometry" />
        </mxCell>
        <mxCell id="IL8CQ9HAOLsPsETkaRRA-78" value="UI" style="shape=parallelogram;html=1;strokeWidth=2;perimeter=parallelogramPerimeter;whiteSpace=wrap;rounded=1;arcSize=12;size=0.23;fillColor=#dae8fc;strokeColor=#6c8ebf;" vertex="1" parent="IL8CQ9HAOLsPsETkaRRA-170">
          <mxGeometry x="993.5" y="2256" width="173" height="73" as="geometry" />
        </mxCell>
        <mxCell id="IL8CQ9HAOLsPsETkaRRA-79" style="edgeStyle=none;curved=1;rounded=0;orthogonalLoop=1;jettySize=auto;html=1;fontSize=12;startSize=8;endSize=8;entryX=0.5;entryY=0;entryDx=0;entryDy=0;" edge="1" parent="IL8CQ9HAOLsPsETkaRRA-170" source="IL8CQ9HAOLsPsETkaRRA-77" target="IL8CQ9HAOLsPsETkaRRA-78">
          <mxGeometry relative="1" as="geometry">
            <mxPoint x="1084" y="2288" as="targetPoint" />
          </mxGeometry>
        </mxCell>
        <mxCell id="IL8CQ9HAOLsPsETkaRRA-84" value="" style="edgeStyle=none;curved=1;rounded=0;orthogonalLoop=1;jettySize=auto;html=1;fontSize=12;startSize=8;endSize=8;" edge="1" parent="IL8CQ9HAOLsPsETkaRRA-170" source="IL8CQ9HAOLsPsETkaRRA-81" target="IL8CQ9HAOLsPsETkaRRA-83">
          <mxGeometry relative="1" as="geometry" />
        </mxCell>
        <mxCell id="IL8CQ9HAOLsPsETkaRRA-81" value="Controller" style="shape=parallelogram;html=1;strokeWidth=2;perimeter=parallelogramPerimeter;whiteSpace=wrap;rounded=1;arcSize=12;size=0.23;fillColor=#dae8fc;strokeColor=#6c8ebf;" vertex="1" parent="IL8CQ9HAOLsPsETkaRRA-170">
          <mxGeometry x="1000" y="2384" width="173" height="73" as="geometry" />
        </mxCell>
        <mxCell id="IL8CQ9HAOLsPsETkaRRA-89" value="" style="edgeStyle=none;curved=1;rounded=0;orthogonalLoop=1;jettySize=auto;html=1;fontSize=12;startSize=8;endSize=8;" edge="1" parent="IL8CQ9HAOLsPsETkaRRA-170" source="IL8CQ9HAOLsPsETkaRRA-83" target="IL8CQ9HAOLsPsETkaRRA-88">
          <mxGeometry relative="1" as="geometry" />
        </mxCell>
        <mxCell id="IL8CQ9HAOLsPsETkaRRA-93" style="edgeStyle=none;curved=1;rounded=0;orthogonalLoop=1;jettySize=auto;html=1;entryX=1;entryY=0.5;entryDx=0;entryDy=0;fontSize=12;startSize=8;endSize=8;" edge="1" parent="IL8CQ9HAOLsPsETkaRRA-170" source="IL8CQ9HAOLsPsETkaRRA-83" target="IL8CQ9HAOLsPsETkaRRA-92">
          <mxGeometry relative="1" as="geometry" />
        </mxCell>
        <mxCell id="IL8CQ9HAOLsPsETkaRRA-83" value="Repository" style="shape=parallelogram;html=1;strokeWidth=2;perimeter=parallelogramPerimeter;whiteSpace=wrap;rounded=1;arcSize=12;size=0.23;fillColor=#dae8fc;strokeColor=#6c8ebf;" vertex="1" parent="IL8CQ9HAOLsPsETkaRRA-170">
          <mxGeometry x="1000" y="2518" width="173" height="73" as="geometry" />
        </mxCell>
        <mxCell id="IL8CQ9HAOLsPsETkaRRA-91" style="edgeStyle=none;curved=1;rounded=0;orthogonalLoop=1;jettySize=auto;html=1;fontSize=12;startSize=8;endSize=8;" edge="1" parent="IL8CQ9HAOLsPsETkaRRA-170" source="IL8CQ9HAOLsPsETkaRRA-88" target="IL8CQ9HAOLsPsETkaRRA-90">
          <mxGeometry relative="1" as="geometry" />
        </mxCell>
        <mxCell id="IL8CQ9HAOLsPsETkaRRA-88" value="Gateway" style="shape=parallelogram;html=1;strokeWidth=2;perimeter=parallelogramPerimeter;whiteSpace=wrap;rounded=1;arcSize=12;size=0.23;fillColor=#dae8fc;strokeColor=#6c8ebf;" vertex="1" parent="IL8CQ9HAOLsPsETkaRRA-170">
          <mxGeometry x="1000" y="2652" width="173" height="73" as="geometry" />
        </mxCell>
        <mxCell id="IL8CQ9HAOLsPsETkaRRA-102" style="edgeStyle=none;curved=1;rounded=0;orthogonalLoop=1;jettySize=auto;html=1;fontSize=12;startSize=8;endSize=8;" edge="1" parent="IL8CQ9HAOLsPsETkaRRA-170" source="IL8CQ9HAOLsPsETkaRRA-90" target="IL8CQ9HAOLsPsETkaRRA-100">
          <mxGeometry relative="1" as="geometry" />
        </mxCell>
        <mxCell id="IL8CQ9HAOLsPsETkaRRA-90" value="" style="image;aspect=fixed;html=1;points=[];align=center;fontSize=12;image=img/lib/azure2/power_platform/Dataverse.svg;" vertex="1" parent="IL8CQ9HAOLsPsETkaRRA-170">
          <mxGeometry x="1050" y="2786" width="68" height="52.400000000000006" as="geometry" />
        </mxCell>
        <mxCell id="IL8CQ9HAOLsPsETkaRRA-95" value="" style="edgeStyle=none;curved=1;rounded=0;orthogonalLoop=1;jettySize=auto;html=1;fontSize=12;startSize=8;endSize=8;exitX=0.5;exitY=1;exitDx=0;exitDy=0;" edge="1" parent="IL8CQ9HAOLsPsETkaRRA-170" source="IL8CQ9HAOLsPsETkaRRA-92">
          <mxGeometry relative="1" as="geometry">
            <mxPoint x="842" y="2665" as="targetPoint" />
          </mxGeometry>
        </mxCell>
        <mxCell id="IL8CQ9HAOLsPsETkaRRA-92" value="Is SQL Enabled" style="rhombus;whiteSpace=wrap;html=1;fillColor=#f8cecc;strokeColor=#b85450;" vertex="1" parent="IL8CQ9HAOLsPsETkaRRA-170">
          <mxGeometry x="765" y="2499" width="154" height="116" as="geometry" />
        </mxCell>
        <mxCell id="IL8CQ9HAOLsPsETkaRRA-94" value="SQL Gateway" style="whiteSpace=wrap;html=1;fillColor=#f8cecc;strokeColor=#b85450;" vertex="1" parent="IL8CQ9HAOLsPsETkaRRA-170">
          <mxGeometry x="777" y="2665" width="120" height="60" as="geometry" />
        </mxCell>
        <mxCell id="IL8CQ9HAOLsPsETkaRRA-96" value="" style="verticalLabelPosition=bottom;html=1;verticalAlign=top;align=center;strokeColor=none;fillColor=#00BEF2;shape=mxgraph.azure.sql_database_sql_azure;" vertex="1" parent="IL8CQ9HAOLsPsETkaRRA-170">
          <mxGeometry x="811.25" y="2775.2" width="75.5" height="74" as="geometry" />
        </mxCell>
        <mxCell id="IL8CQ9HAOLsPsETkaRRA-99" style="edgeStyle=none;curved=1;rounded=0;orthogonalLoop=1;jettySize=auto;html=1;entryX=0.35;entryY=0;entryDx=0;entryDy=0;entryPerimeter=0;fontSize=12;startSize=8;endSize=8;" edge="1" parent="IL8CQ9HAOLsPsETkaRRA-170" source="IL8CQ9HAOLsPsETkaRRA-94" target="IL8CQ9HAOLsPsETkaRRA-96">
          <mxGeometry relative="1" as="geometry" />
        </mxCell>
        <mxCell id="IL8CQ9HAOLsPsETkaRRA-100" value="END" style="ellipse;shape=doubleEllipse;whiteSpace=wrap;html=1;fillColor=#e1d5e7;strokeColor=#9673a6;" vertex="1" parent="IL8CQ9HAOLsPsETkaRRA-170">
          <mxGeometry x="1034" y="2932" width="100" height="60" as="geometry" />
        </mxCell>
        <mxCell id="IL8CQ9HAOLsPsETkaRRA-101" style="edgeStyle=none;curved=0;rounded=0;orthogonalLoop=1;jettySize=auto;html=1;entryX=0;entryY=0.5;entryDx=0;entryDy=0;fontSize=12;startSize=8;endSize=8;" edge="1" parent="IL8CQ9HAOLsPsETkaRRA-170" source="IL8CQ9HAOLsPsETkaRRA-96" target="IL8CQ9HAOLsPsETkaRRA-100">
          <mxGeometry relative="1" as="geometry">
            <Array as="points">
              <mxPoint x="849" y="2965" />
            </Array>
          </mxGeometry>
        </mxCell>
        <mxCell id="IL8CQ9HAOLsPsETkaRRA-103" value="1" style="ellipse;whiteSpace=wrap;html=1;aspect=fixed;rotation=0;gradientColor=#223548;strokeColor=none;gradientDirection=east;fillColor=#5b738b;rounded=0;pointerEvents=0;fontFamily=Helvetica;fontSize=16;fontColor=#FFFFFF;spacingTop=4;spacingBottom=4;spacingLeft=4;spacingRight=4;points=[];fontStyle=1" vertex="1" parent="IL8CQ9HAOLsPsETkaRRA-170">
          <mxGeometry x="1094" y="2217" width="30" height="30" as="geometry" />
        </mxCell>
        <mxCell id="IL8CQ9HAOLsPsETkaRRA-104" value="2" style="ellipse;whiteSpace=wrap;html=1;aspect=fixed;rotation=0;gradientColor=#223548;strokeColor=none;gradientDirection=east;fillColor=#5b738b;rounded=0;pointerEvents=0;fontFamily=Helvetica;fontSize=16;fontColor=#FFFFFF;spacingTop=4;spacingBottom=4;spacingLeft=4;spacingRight=4;points=[];fontStyle=1" vertex="1" parent="IL8CQ9HAOLsPsETkaRRA-170">
          <mxGeometry x="1099" y="2346" width="30" height="30" as="geometry" />
        </mxCell>
        <mxCell id="IL8CQ9HAOLsPsETkaRRA-105" value="3" style="ellipse;whiteSpace=wrap;html=1;aspect=fixed;rotation=0;gradientColor=#223548;strokeColor=none;gradientDirection=east;fillColor=#5b738b;rounded=0;pointerEvents=0;fontFamily=Helvetica;fontSize=16;fontColor=#FFFFFF;spacingTop=4;spacingBottom=4;spacingLeft=4;spacingRight=4;points=[];fontStyle=1" vertex="1" parent="IL8CQ9HAOLsPsETkaRRA-170">
          <mxGeometry x="1099" y="2473" width="30" height="30" as="geometry" />
        </mxCell>
        <mxCell id="IL8CQ9HAOLsPsETkaRRA-106" value="4" style="ellipse;whiteSpace=wrap;html=1;aspect=fixed;rotation=0;gradientColor=#223548;strokeColor=none;gradientDirection=east;fillColor=#5b738b;rounded=0;pointerEvents=0;fontFamily=Helvetica;fontSize=16;fontColor=#FFFFFF;spacingTop=4;spacingBottom=4;spacingLeft=4;spacingRight=4;points=[];fontStyle=1" vertex="1" parent="IL8CQ9HAOLsPsETkaRRA-170">
          <mxGeometry x="1105" y="2607" width="30" height="30" as="geometry" />
        </mxCell>
        <mxCell id="IL8CQ9HAOLsPsETkaRRA-107" value="5" style="ellipse;whiteSpace=wrap;html=1;aspect=fixed;rotation=0;gradientColor=#223548;strokeColor=none;gradientDirection=east;fillColor=#5b738b;rounded=0;pointerEvents=0;fontFamily=Helvetica;fontSize=16;fontColor=#FFFFFF;spacingTop=4;spacingBottom=4;spacingLeft=4;spacingRight=4;points=[];fontStyle=1" vertex="1" parent="IL8CQ9HAOLsPsETkaRRA-170">
          <mxGeometry x="1095" y="2746" width="30" height="30" as="geometry" />
        </mxCell>
        <mxCell id="IL8CQ9HAOLsPsETkaRRA-108" value="3.1" style="ellipse;whiteSpace=wrap;html=1;aspect=fixed;rotation=0;gradientColor=#256F3A;strokeColor=none;gradientDirection=east;fillColor=#5DC122;rounded=0;pointerEvents=0;fontFamily=Helvetica;fontSize=16;fontColor=#FFFFFF;spacingTop=4;spacingBottom=4;spacingLeft=4;spacingRight=4;points=[];fontStyle=1" vertex="1" parent="IL8CQ9HAOLsPsETkaRRA-170">
          <mxGeometry x="951" y="2525" width="30" height="30" as="geometry" />
        </mxCell>
        <mxCell id="IL8CQ9HAOLsPsETkaRRA-109" value="3.2" style="ellipse;whiteSpace=wrap;html=1;aspect=fixed;rotation=0;gradientColor=#256F3A;strokeColor=none;gradientDirection=east;fillColor=#5DC122;rounded=0;pointerEvents=0;fontFamily=Helvetica;fontSize=16;fontColor=#FFFFFF;spacingTop=4;spacingBottom=4;spacingLeft=4;spacingRight=4;points=[];fontStyle=1" vertex="1" parent="IL8CQ9HAOLsPsETkaRRA-170">
          <mxGeometry x="851" y="2625" width="30" height="30" as="geometry" />
        </mxCell>
        <mxCell id="IL8CQ9HAOLsPsETkaRRA-110" value="3.3" style="ellipse;whiteSpace=wrap;html=1;aspect=fixed;rotation=0;gradientColor=#256F3A;strokeColor=none;gradientDirection=east;fillColor=#5DC122;rounded=0;pointerEvents=0;fontFamily=Helvetica;fontSize=16;fontColor=#FFFFFF;spacingTop=4;spacingBottom=4;spacingLeft=4;spacingRight=4;points=[];fontStyle=1" vertex="1" parent="IL8CQ9HAOLsPsETkaRRA-170">
          <mxGeometry x="851" y="2735" width="30" height="30" as="geometry" />
        </mxCell>
        <mxCell id="IL8CQ9HAOLsPsETkaRRA-112" value="6" style="ellipse;whiteSpace=wrap;html=1;aspect=fixed;rotation=0;gradientColor=#223548;strokeColor=none;gradientDirection=east;fillColor=#5b738b;rounded=0;pointerEvents=0;fontFamily=Helvetica;fontSize=16;fontColor=#FFFFFF;spacingTop=4;spacingBottom=4;spacingLeft=4;spacingRight=4;points=[];fontStyle=1" vertex="1" parent="IL8CQ9HAOLsPsETkaRRA-170">
          <mxGeometry x="1088" y="2860" width="30" height="30" as="geometry" />
        </mxCell>
        <mxCell id="IL8CQ9HAOLsPsETkaRRA-113" value="3.4" style="ellipse;whiteSpace=wrap;html=1;aspect=fixed;rotation=0;gradientColor=#256F3A;strokeColor=none;gradientDirection=east;fillColor=#5DC122;rounded=0;pointerEvents=0;fontFamily=Helvetica;fontSize=16;fontColor=#FFFFFF;spacingTop=4;spacingBottom=4;spacingLeft=4;spacingRight=4;points=[];fontStyle=1" vertex="1" parent="IL8CQ9HAOLsPsETkaRRA-170">
          <mxGeometry x="851" y="2881" width="30" height="30" as="geometry" />
        </mxCell>
        <mxCell id="IL8CQ9HAOLsPsETkaRRA-144" style="edgeStyle=none;curved=1;rounded=0;orthogonalLoop=1;jettySize=auto;html=1;fontSize=12;startSize=8;endSize=8;" edge="1" parent="IL8CQ9HAOLsPsETkaRRA-170" source="IL8CQ9HAOLsPsETkaRRA-114" target="IL8CQ9HAOLsPsETkaRRA-116">
          <mxGeometry relative="1" as="geometry" />
        </mxCell>
        <mxCell id="IL8CQ9HAOLsPsETkaRRA-114" value="Start" style="strokeWidth=2;html=1;shape=mxgraph.flowchart.start_2;whiteSpace=wrap;fillColor=#d5e8d4;strokeColor=#82b366;" vertex="1" parent="IL8CQ9HAOLsPsETkaRRA-170">
          <mxGeometry x="635" y="3155" width="100" height="100" as="geometry" />
        </mxCell>
        <mxCell id="IL8CQ9HAOLsPsETkaRRA-115" value="" style="edgeStyle=none;curved=1;rounded=0;orthogonalLoop=1;jettySize=auto;html=1;fontSize=12;startSize=8;endSize=8;" edge="1" parent="IL8CQ9HAOLsPsETkaRRA-170" source="IL8CQ9HAOLsPsETkaRRA-116" target="IL8CQ9HAOLsPsETkaRRA-119">
          <mxGeometry relative="1" as="geometry" />
        </mxCell>
        <mxCell id="IL8CQ9HAOLsPsETkaRRA-116" value="UI" style="shape=parallelogram;html=1;strokeWidth=2;perimeter=parallelogramPerimeter;whiteSpace=wrap;rounded=1;arcSize=12;size=0.23;fillColor=#dae8fc;strokeColor=#6c8ebf;" vertex="1" parent="IL8CQ9HAOLsPsETkaRRA-170">
          <mxGeometry x="782" y="3165" width="173" height="73" as="geometry" />
        </mxCell>
        <mxCell id="IL8CQ9HAOLsPsETkaRRA-118" value="" style="edgeStyle=none;curved=1;rounded=0;orthogonalLoop=1;jettySize=auto;html=1;fontSize=12;startSize=8;endSize=8;" edge="1" parent="IL8CQ9HAOLsPsETkaRRA-170" source="IL8CQ9HAOLsPsETkaRRA-119" target="IL8CQ9HAOLsPsETkaRRA-122">
          <mxGeometry relative="1" as="geometry" />
        </mxCell>
        <mxCell id="IL8CQ9HAOLsPsETkaRRA-119" value="Controller" style="shape=parallelogram;html=1;strokeWidth=2;perimeter=parallelogramPerimeter;whiteSpace=wrap;rounded=1;arcSize=12;size=0.23;fillColor=#dae8fc;strokeColor=#6c8ebf;" vertex="1" parent="IL8CQ9HAOLsPsETkaRRA-170">
          <mxGeometry x="976.5" y="3165" width="173" height="73" as="geometry" />
        </mxCell>
        <mxCell id="IL8CQ9HAOLsPsETkaRRA-120" value="" style="edgeStyle=none;curved=1;rounded=0;orthogonalLoop=1;jettySize=auto;html=1;fontSize=12;startSize=8;endSize=8;" edge="1" parent="IL8CQ9HAOLsPsETkaRRA-170" source="IL8CQ9HAOLsPsETkaRRA-122" target="IL8CQ9HAOLsPsETkaRRA-124">
          <mxGeometry relative="1" as="geometry" />
        </mxCell>
        <mxCell id="IL8CQ9HAOLsPsETkaRRA-122" value="Repository" style="shape=parallelogram;html=1;strokeWidth=2;perimeter=parallelogramPerimeter;whiteSpace=wrap;rounded=1;arcSize=12;size=0.23;fillColor=#dae8fc;strokeColor=#6c8ebf;" vertex="1" parent="IL8CQ9HAOLsPsETkaRRA-170">
          <mxGeometry x="1168.5" y="3172" width="173" height="73" as="geometry" />
        </mxCell>
        <mxCell id="IL8CQ9HAOLsPsETkaRRA-123" style="edgeStyle=none;curved=1;rounded=0;orthogonalLoop=1;jettySize=auto;html=1;fontSize=12;startSize=8;endSize=8;" edge="1" parent="IL8CQ9HAOLsPsETkaRRA-170" source="IL8CQ9HAOLsPsETkaRRA-124" target="IL8CQ9HAOLsPsETkaRRA-126">
          <mxGeometry relative="1" as="geometry" />
        </mxCell>
        <mxCell id="IL8CQ9HAOLsPsETkaRRA-124" value="Gateway" style="shape=parallelogram;html=1;strokeWidth=2;perimeter=parallelogramPerimeter;whiteSpace=wrap;rounded=1;arcSize=12;size=0.23;fillColor=#dae8fc;strokeColor=#6c8ebf;" vertex="1" parent="IL8CQ9HAOLsPsETkaRRA-170">
          <mxGeometry x="1381" y="3172" width="173" height="73" as="geometry" />
        </mxCell>
        <mxCell id="IL8CQ9HAOLsPsETkaRRA-125" style="edgeStyle=none;curved=1;rounded=0;orthogonalLoop=1;jettySize=auto;html=1;fontSize=12;startSize=8;endSize=8;" edge="1" parent="IL8CQ9HAOLsPsETkaRRA-170" source="IL8CQ9HAOLsPsETkaRRA-126" target="IL8CQ9HAOLsPsETkaRRA-132">
          <mxGeometry relative="1" as="geometry" />
        </mxCell>
        <mxCell id="IL8CQ9HAOLsPsETkaRRA-126" value="" style="image;aspect=fixed;html=1;points=[];align=center;fontSize=12;image=img/lib/azure2/power_platform/Dataverse.svg;" vertex="1" parent="IL8CQ9HAOLsPsETkaRRA-170">
          <mxGeometry x="1623" y="3185.6" width="68" height="52.400000000000006" as="geometry" />
        </mxCell>
        <mxCell id="IL8CQ9HAOLsPsETkaRRA-132" value="END" style="ellipse;shape=doubleEllipse;whiteSpace=wrap;html=1;fillColor=#e1d5e7;strokeColor=#9673a6;" vertex="1" parent="IL8CQ9HAOLsPsETkaRRA-170">
          <mxGeometry x="1604" y="3371" width="100" height="60" as="geometry" />
        </mxCell>
        <mxCell id="IL8CQ9HAOLsPsETkaRRA-134" value="1" style="ellipse;whiteSpace=wrap;html=1;aspect=fixed;rotation=0;gradientColor=#223548;strokeColor=none;gradientDirection=east;fillColor=#5b738b;rounded=0;pointerEvents=0;fontFamily=Helvetica;fontSize=16;fontColor=#FFFFFF;spacingTop=4;spacingBottom=4;spacingLeft=4;spacingRight=4;points=[];fontStyle=1" vertex="1" parent="IL8CQ9HAOLsPsETkaRRA-170">
          <mxGeometry x="750" y="3167" width="30" height="30" as="geometry" />
        </mxCell>
        <mxCell id="IL8CQ9HAOLsPsETkaRRA-135" value="2" style="ellipse;whiteSpace=wrap;html=1;aspect=fixed;rotation=0;gradientColor=#223548;strokeColor=none;gradientDirection=east;fillColor=#5b738b;rounded=0;pointerEvents=0;fontFamily=Helvetica;fontSize=16;fontColor=#FFFFFF;spacingTop=4;spacingBottom=4;spacingLeft=4;spacingRight=4;points=[];fontStyle=1" vertex="1" parent="IL8CQ9HAOLsPsETkaRRA-170">
          <mxGeometry x="956" y="3169" width="30" height="30" as="geometry" />
        </mxCell>
        <mxCell id="IL8CQ9HAOLsPsETkaRRA-136" value="3" style="ellipse;whiteSpace=wrap;html=1;aspect=fixed;rotation=0;gradientColor=#223548;strokeColor=none;gradientDirection=east;fillColor=#5b738b;rounded=0;pointerEvents=0;fontFamily=Helvetica;fontSize=16;fontColor=#FFFFFF;spacingTop=4;spacingBottom=4;spacingLeft=4;spacingRight=4;points=[];fontStyle=1" vertex="1" parent="IL8CQ9HAOLsPsETkaRRA-170">
          <mxGeometry x="1147" y="3172" width="30" height="30" as="geometry" />
        </mxCell>
        <mxCell id="IL8CQ9HAOLsPsETkaRRA-137" value="4" style="ellipse;whiteSpace=wrap;html=1;aspect=fixed;rotation=0;gradientColor=#223548;strokeColor=none;gradientDirection=east;fillColor=#5b738b;rounded=0;pointerEvents=0;fontFamily=Helvetica;fontSize=16;fontColor=#FFFFFF;spacingTop=4;spacingBottom=4;spacingLeft=4;spacingRight=4;points=[];fontStyle=1" vertex="1" parent="IL8CQ9HAOLsPsETkaRRA-170">
          <mxGeometry x="1348" y="3172" width="30" height="30" as="geometry" />
        </mxCell>
        <mxCell id="IL8CQ9HAOLsPsETkaRRA-138" value="5" style="ellipse;whiteSpace=wrap;html=1;aspect=fixed;rotation=0;gradientColor=#223548;strokeColor=none;gradientDirection=east;fillColor=#5b738b;rounded=0;pointerEvents=0;fontFamily=Helvetica;fontSize=16;fontColor=#FFFFFF;spacingTop=4;spacingBottom=4;spacingLeft=4;spacingRight=4;points=[];fontStyle=1" vertex="1" parent="IL8CQ9HAOLsPsETkaRRA-170">
          <mxGeometry x="1574" y="3172" width="30" height="30" as="geometry" />
        </mxCell>
        <mxCell id="IL8CQ9HAOLsPsETkaRRA-142" value="6" style="ellipse;whiteSpace=wrap;html=1;aspect=fixed;rotation=0;gradientColor=#223548;strokeColor=none;gradientDirection=east;fillColor=#5b738b;rounded=0;pointerEvents=0;fontFamily=Helvetica;fontSize=16;fontColor=#FFFFFF;spacingTop=4;spacingBottom=4;spacingLeft=4;spacingRight=4;points=[];fontStyle=1" vertex="1" parent="IL8CQ9HAOLsPsETkaRRA-170">
          <mxGeometry x="1658" y="3299" width="30" height="30" as="geometry" />
        </mxCell>
        <mxCell id="IL8CQ9HAOLsPsETkaRRA-143" value="3.4" style="ellipse;whiteSpace=wrap;html=1;aspect=fixed;rotation=0;gradientColor=#256F3A;strokeColor=none;gradientDirection=east;fillColor=#5DC122;rounded=0;pointerEvents=0;fontFamily=Helvetica;fontSize=16;fontColor=#FFFFFF;spacingTop=4;spacingBottom=4;spacingLeft=4;spacingRight=4;points=[];fontStyle=1" vertex="1" parent="IL8CQ9HAOLsPsETkaRRA-170">
          <mxGeometry x="1468" y="3546" width="30" height="30" as="geometry" />
        </mxCell>
        <mxCell id="IL8CQ9HAOLsPsETkaRRA-147" value="&lt;font style=&quot;font-size: 25px;&quot;&gt;High Level Code Flow (Dual Read and Write)&lt;/font&gt;" style="text;html=1;align=center;verticalAlign=middle;whiteSpace=wrap;rounded=1;shadow=1;glass=1;sketch=1;curveFitting=1;jiggle=2;dashed=1;dashPattern=8 8;" vertex="1" parent="IL8CQ9HAOLsPsETkaRRA-170">
          <mxGeometry x="970.75" y="3103" width="554.5" height="30" as="geometry" />
        </mxCell>
        <mxCell id="IL8CQ9HAOLsPsETkaRRA-158" value="3.1" style="ellipse;whiteSpace=wrap;html=1;aspect=fixed;rotation=0;gradientColor=#256F3A;strokeColor=none;gradientDirection=east;fillColor=#5DC122;rounded=0;pointerEvents=0;fontFamily=Helvetica;fontSize=16;fontColor=#FFFFFF;spacingTop=4;spacingBottom=4;spacingLeft=4;spacingRight=4;points=[];fontStyle=1" vertex="1" parent="IL8CQ9HAOLsPsETkaRRA-170">
          <mxGeometry x="1264" y="3269" width="30" height="30" as="geometry" />
        </mxCell>
        <mxCell id="IL8CQ9HAOLsPsETkaRRA-169" value="" style="group" vertex="1" connectable="0" parent="IL8CQ9HAOLsPsETkaRRA-170">
          <mxGeometry x="1099" y="3317" width="312" height="436" as="geometry" />
        </mxCell>
        <mxCell id="IL8CQ9HAOLsPsETkaRRA-149" value="" style="rounded=1;whiteSpace=wrap;html=1;dashed=1;" vertex="1" parent="IL8CQ9HAOLsPsETkaRRA-169">
          <mxGeometry width="312" height="436" as="geometry" />
        </mxCell>
        <mxCell id="IL8CQ9HAOLsPsETkaRRA-157" style="edgeStyle=none;curved=1;rounded=0;orthogonalLoop=1;jettySize=auto;html=1;fontSize=12;startSize=8;endSize=8;" edge="1" parent="IL8CQ9HAOLsPsETkaRRA-169" source="IL8CQ9HAOLsPsETkaRRA-151" target="IL8CQ9HAOLsPsETkaRRA-152">
          <mxGeometry relative="1" as="geometry" />
        </mxCell>
        <mxCell id="IL8CQ9HAOLsPsETkaRRA-151" value="Is SQL Enabled" style="rhombus;whiteSpace=wrap;html=1;fillColor=#f8cecc;strokeColor=#b85450;" vertex="1" parent="IL8CQ9HAOLsPsETkaRRA-169">
          <mxGeometry x="77" y="26" width="154" height="116" as="geometry" />
        </mxCell>
        <mxCell id="IL8CQ9HAOLsPsETkaRRA-152" value="SQL Gateway" style="whiteSpace=wrap;html=1;fillColor=#f8cecc;strokeColor=#b85450;" vertex="1" parent="IL8CQ9HAOLsPsETkaRRA-169">
          <mxGeometry x="89" y="199" width="120" height="60" as="geometry" />
        </mxCell>
        <mxCell id="IL8CQ9HAOLsPsETkaRRA-153" value="" style="verticalLabelPosition=bottom;html=1;verticalAlign=top;align=center;strokeColor=none;fillColor=#00BEF2;shape=mxgraph.azure.sql_database_sql_azure;" vertex="1" parent="IL8CQ9HAOLsPsETkaRRA-169">
          <mxGeometry x="122.5" y="347" width="75.5" height="74" as="geometry" />
        </mxCell>
        <mxCell id="IL8CQ9HAOLsPsETkaRRA-159" value="3.2" style="ellipse;whiteSpace=wrap;html=1;aspect=fixed;rotation=0;gradientColor=#256F3A;strokeColor=none;gradientDirection=east;fillColor=#5DC122;rounded=0;pointerEvents=0;fontFamily=Helvetica;fontSize=16;fontColor=#FFFFFF;spacingTop=4;spacingBottom=4;spacingLeft=4;spacingRight=4;points=[];fontStyle=1" vertex="1" parent="IL8CQ9HAOLsPsETkaRRA-169">
          <mxGeometry x="160" y="162" width="30" height="30" as="geometry" />
        </mxCell>
        <mxCell id="IL8CQ9HAOLsPsETkaRRA-160" value="3.3" style="ellipse;whiteSpace=wrap;html=1;aspect=fixed;rotation=0;gradientColor=#256F3A;strokeColor=none;gradientDirection=east;fillColor=#5DC122;rounded=0;pointerEvents=0;fontFamily=Helvetica;fontSize=16;fontColor=#FFFFFF;spacingTop=4;spacingBottom=4;spacingLeft=4;spacingRight=4;points=[];fontStyle=1" vertex="1" parent="IL8CQ9HAOLsPsETkaRRA-169">
          <mxGeometry x="157" y="288" width="30" height="30" as="geometry" />
        </mxCell>
        <mxCell id="IL8CQ9HAOLsPsETkaRRA-156" style="edgeStyle=none;curved=1;rounded=0;orthogonalLoop=1;jettySize=auto;html=1;entryX=0.35;entryY=0;entryDx=0;entryDy=0;entryPerimeter=0;fontSize=12;startSize=8;endSize=8;" edge="1" parent="IL8CQ9HAOLsPsETkaRRA-169" source="IL8CQ9HAOLsPsETkaRRA-152" target="IL8CQ9HAOLsPsETkaRRA-153">
          <mxGeometry relative="1" as="geometry" />
        </mxCell>
        <mxCell id="IL8CQ9HAOLsPsETkaRRA-164" style="edgeStyle=none;curved=1;rounded=0;orthogonalLoop=1;jettySize=auto;html=1;fontSize=12;startSize=8;endSize=8;" edge="1" parent="IL8CQ9HAOLsPsETkaRRA-170" source="IL8CQ9HAOLsPsETkaRRA-122" target="IL8CQ9HAOLsPsETkaRRA-151">
          <mxGeometry relative="1" as="geometry" />
        </mxCell>
        <mxCell id="IL8CQ9HAOLsPsETkaRRA-163" style="edgeStyle=none;curved=0;rounded=0;orthogonalLoop=1;jettySize=auto;html=1;fontSize=12;startSize=8;endSize=8;exitX=0.69;exitY=0.5;exitDx=0;exitDy=0;exitPerimeter=0;" edge="1" parent="IL8CQ9HAOLsPsETkaRRA-170" source="IL8CQ9HAOLsPsETkaRRA-153">
          <mxGeometry relative="1" as="geometry">
            <mxPoint x="1604" y="3401" as="targetPoint" />
            <Array as="points">
              <mxPoint x="1500" y="3701" />
              <mxPoint x="1504" y="3401" />
            </Array>
          </mxGeometry>
        </mxCell>
      </root>
    </mxGraphModel>
  </diagram>
  <diagram id="oFysJqv28C7pIWWyxlNB" name="Page-2">
    <mxGraphModel dx="1489" dy="1277" grid="0" gridSize="10" guides="1" tooltips="1" connect="1" arrows="1" fold="1" page="0" pageScale="1" pageWidth="827" pageHeight="1169" math="0" shadow="0">
      <root>
        <mxCell id="0" />
        <mxCell id="1" parent="0" />
        <mxCell id="JjUZZSlwbRuEx0htVmUF-52" value="" style="rounded=0;whiteSpace=wrap;html=1;" vertex="1" parent="1">
          <mxGeometry x="276" y="625" width="990" height="433" as="geometry" />
        </mxCell>
        <mxCell id="JjUZZSlwbRuEx0htVmUF-32" value="" style="rounded=0;whiteSpace=wrap;html=1;" vertex="1" parent="1">
          <mxGeometry x="485" y="777" width="561" height="202" as="geometry" />
        </mxCell>
        <mxCell id="JjUZZSlwbRuEx0htVmUF-1" value="Campaign" style="rounded=1;fillColor=#dae8fc;strokeColor=#6c8ebf;" vertex="1" parent="1">
          <mxGeometry x="114" y="29" width="120" height="60" as="geometry" />
        </mxCell>
        <mxCell id="JjUZZSlwbRuEx0htVmUF-2" value="Tactic" style="rounded=1;fillColor=#d5e8d4;strokeColor=#82b366;" vertex="1" parent="1">
          <mxGeometry x="460" y="14" width="120" height="60" as="geometry" />
        </mxCell>
        <mxCell id="JjUZZSlwbRuEx0htVmUF-4" value="Project File" style="rounded=1;fillColor=#fff2cc;strokeColor=#d6b656;" vertex="1" parent="1">
          <mxGeometry x="717" y="-137" width="120" height="60" as="geometry" />
        </mxCell>
        <mxCell id="JjUZZSlwbRuEx0htVmUF-5" value="Milestone" style="rounded=1;fillColor=#e1d5e7;strokeColor=#9673a6;" vertex="1" parent="1">
          <mxGeometry x="447" y="-144" width="120" height="60" as="geometry" />
        </mxCell>
        <mxCell id="JjUZZSlwbRuEx0htVmUF-6" value="Calendar (Read-only)" style="rounded=1;fillColor=#f8cecc;strokeColor=#b85450;" vertex="1" parent="1">
          <mxGeometry x="276" y="340" width="140" height="60" as="geometry" />
        </mxCell>
        <mxCell id="JjUZZSlwbRuEx0htVmUF-7" value="Report (PBI)" style="rounded=1;fillColor=#cce5ff;strokeColor=#4d7dbf;" vertex="1" parent="1">
          <mxGeometry x="114" y="340" width="120" height="60" as="geometry" />
        </mxCell>
        <mxCell id="JjUZZSlwbRuEx0htVmUF-8" value="Paid Media (Hidden)" style="rounded=1;fillColor=#f5f5f5;strokeColor=#999999;" vertex="1" parent="1">
          <mxGeometry x="174" y="-132" width="150" height="60" as="geometry" />
        </mxCell>
        <mxCell id="JjUZZSlwbRuEx0htVmUF-9" value="My Workspace" style="rounded=1;fillColor=#ccffcc;strokeColor=#33cc33;" vertex="1" parent="1">
          <mxGeometry x="437" y="344" width="140" height="60" as="geometry" />
        </mxCell>
        <mxCell id="JjUZZSlwbRuEx0htVmUF-10" style="endArrow=block;" edge="1" parent="1" source="JjUZZSlwbRuEx0htVmUF-1" target="JjUZZSlwbRuEx0htVmUF-2">
          <mxGeometry relative="1" as="geometry" />
        </mxCell>
        <mxCell id="JjUZZSlwbRuEx0htVmUF-11" style="endArrow=block;entryX=0;entryY=0.5;entryDx=0;entryDy=0;" edge="1" parent="1" source="JjUZZSlwbRuEx0htVmUF-1" target="JjUZZSlwbRuEx0htVmUF-4">
          <mxGeometry relative="1" as="geometry">
            <mxPoint x="600" y="130" as="targetPoint" />
          </mxGeometry>
        </mxCell>
        <mxCell id="JjUZZSlwbRuEx0htVmUF-13" style="endArrow=block;" edge="1" parent="1" source="JjUZZSlwbRuEx0htVmUF-2" target="JjUZZSlwbRuEx0htVmUF-1">
          <mxGeometry relative="1" as="geometry" />
        </mxCell>
        <mxCell id="JjUZZSlwbRuEx0htVmUF-18" style="endArrow=block;" edge="1" parent="1" source="JjUZZSlwbRuEx0htVmUF-4" target="JjUZZSlwbRuEx0htVmUF-2">
          <mxGeometry relative="1" as="geometry" />
        </mxCell>
        <mxCell id="JjUZZSlwbRuEx0htVmUF-19" style="endArrow=block;" edge="1" parent="1" source="JjUZZSlwbRuEx0htVmUF-4" target="JjUZZSlwbRuEx0htVmUF-5">
          <mxGeometry relative="1" as="geometry" />
        </mxCell>
        <mxCell id="JjUZZSlwbRuEx0htVmUF-20" style="endArrow=block;" edge="1" parent="1" source="JjUZZSlwbRuEx0htVmUF-6" target="JjUZZSlwbRuEx0htVmUF-2">
          <mxGeometry relative="1" as="geometry" />
        </mxCell>
        <mxCell id="JjUZZSlwbRuEx0htVmUF-21" style="endArrow=block;" edge="1" parent="1" source="JjUZZSlwbRuEx0htVmUF-7" target="JjUZZSlwbRuEx0htVmUF-1">
          <mxGeometry relative="1" as="geometry" />
        </mxCell>
        <mxCell id="JjUZZSlwbRuEx0htVmUF-22" style="endArrow=block;" edge="1" parent="1" source="JjUZZSlwbRuEx0htVmUF-7" target="JjUZZSlwbRuEx0htVmUF-2">
          <mxGeometry relative="1" as="geometry" />
        </mxCell>
        <mxCell id="JjUZZSlwbRuEx0htVmUF-24" style="endArrow=block;" edge="1" parent="1" source="JjUZZSlwbRuEx0htVmUF-8" target="JjUZZSlwbRuEx0htVmUF-1">
          <mxGeometry relative="1" as="geometry" />
        </mxCell>
        <mxCell id="JjUZZSlwbRuEx0htVmUF-25" style="endArrow=block;" edge="1" parent="1" source="JjUZZSlwbRuEx0htVmUF-8" target="JjUZZSlwbRuEx0htVmUF-2">
          <mxGeometry relative="1" as="geometry" />
        </mxCell>
        <mxCell id="JjUZZSlwbRuEx0htVmUF-26" style="endArrow=block;" edge="1" parent="1" source="JjUZZSlwbRuEx0htVmUF-9" target="JjUZZSlwbRuEx0htVmUF-2">
          <mxGeometry relative="1" as="geometry" />
        </mxCell>
        <mxCell id="JjUZZSlwbRuEx0htVmUF-27" style="endArrow=block;" edge="1" parent="1" source="JjUZZSlwbRuEx0htVmUF-9" target="JjUZZSlwbRuEx0htVmUF-1">
          <mxGeometry relative="1" as="geometry" />
        </mxCell>
        <mxCell id="JjUZZSlwbRuEx0htVmUF-28" style="edgeStyle=none;curved=1;rounded=0;orthogonalLoop=1;jettySize=auto;html=1;fontSize=12;startSize=8;endSize=8;" edge="1" parent="1" source="JjUZZSlwbRuEx0htVmUF-5">
          <mxGeometry relative="1" as="geometry">
            <mxPoint x="528" y="13" as="targetPoint" />
            <Array as="points">
              <mxPoint x="526" y="-7" />
            </Array>
          </mxGeometry>
        </mxCell>
        <mxCell id="JjUZZSlwbRuEx0htVmUF-31" value="" style="edgeStyle=none;curved=1;rounded=0;orthogonalLoop=1;jettySize=auto;html=1;fontSize=12;startSize=8;endSize=8;" edge="1" parent="1" source="JjUZZSlwbRuEx0htVmUF-29" target="JjUZZSlwbRuEx0htVmUF-30">
          <mxGeometry relative="1" as="geometry" />
        </mxCell>
        <mxCell id="JjUZZSlwbRuEx0htVmUF-50" style="edgeStyle=none;curved=1;rounded=0;orthogonalLoop=1;jettySize=auto;html=1;entryX=0.5;entryY=0;entryDx=0;entryDy=0;fontSize=12;startSize=8;endSize=8;" edge="1" parent="1" source="JjUZZSlwbRuEx0htVmUF-29" target="JjUZZSlwbRuEx0htVmUF-49">
          <mxGeometry relative="1" as="geometry">
            <Array as="points">
              <mxPoint x="409" y="643" />
            </Array>
          </mxGeometry>
        </mxCell>
        <mxCell id="JjUZZSlwbRuEx0htVmUF-29" value="Campaign" style="rounded=1;whiteSpace=wrap;html=1;fillColor=#dae8fc;strokeColor=#6c8ebf;" vertex="1" parent="1">
          <mxGeometry x="716" y="672" width="120" height="60" as="geometry" />
        </mxCell>
        <mxCell id="JjUZZSlwbRuEx0htVmUF-37" style="edgeStyle=none;curved=1;rounded=0;orthogonalLoop=1;jettySize=auto;html=1;entryX=0.5;entryY=0;entryDx=0;entryDy=0;fontSize=12;startSize=8;endSize=8;" edge="1" parent="1" source="JjUZZSlwbRuEx0htVmUF-30" target="JjUZZSlwbRuEx0htVmUF-33">
          <mxGeometry relative="1" as="geometry" />
        </mxCell>
        <mxCell id="JjUZZSlwbRuEx0htVmUF-38" style="edgeStyle=none;curved=1;rounded=0;orthogonalLoop=1;jettySize=auto;html=1;fontSize=12;startSize=8;endSize=8;" edge="1" parent="1" source="JjUZZSlwbRuEx0htVmUF-30" target="JjUZZSlwbRuEx0htVmUF-34">
          <mxGeometry relative="1" as="geometry" />
        </mxCell>
        <mxCell id="JjUZZSlwbRuEx0htVmUF-39" style="edgeStyle=none;curved=1;rounded=0;orthogonalLoop=1;jettySize=auto;html=1;fontSize=12;startSize=8;endSize=8;" edge="1" parent="1" source="JjUZZSlwbRuEx0htVmUF-30" target="JjUZZSlwbRuEx0htVmUF-35">
          <mxGeometry relative="1" as="geometry" />
        </mxCell>
        <mxCell id="JjUZZSlwbRuEx0htVmUF-40" style="edgeStyle=none;curved=1;rounded=0;orthogonalLoop=1;jettySize=auto;html=1;fontSize=12;startSize=8;endSize=8;" edge="1" parent="1" source="JjUZZSlwbRuEx0htVmUF-30" target="JjUZZSlwbRuEx0htVmUF-36">
          <mxGeometry relative="1" as="geometry" />
        </mxCell>
        <mxCell id="JjUZZSlwbRuEx0htVmUF-51" style="edgeStyle=none;curved=1;rounded=0;orthogonalLoop=1;jettySize=auto;html=1;fontSize=12;startSize=8;endSize=8;" edge="1" parent="1" source="JjUZZSlwbRuEx0htVmUF-30" target="JjUZZSlwbRuEx0htVmUF-49">
          <mxGeometry relative="1" as="geometry" />
        </mxCell>
        <mxCell id="JjUZZSlwbRuEx0htVmUF-30" value="Tactics" style="rounded=1;whiteSpace=wrap;html=1;fillColor=#fff2cc;strokeColor=#d6b656;" vertex="1" parent="1">
          <mxGeometry x="716" y="803" width="120" height="60" as="geometry" />
        </mxCell>
        <mxCell id="JjUZZSlwbRuEx0htVmUF-33" value="Milestone" style="rounded=1;fillColor=#e1d5e7;strokeColor=#9673a6;dashed=1;" vertex="1" parent="1">
          <mxGeometry x="505" y="909" width="114" height="39" as="geometry" />
        </mxCell>
        <mxCell id="JjUZZSlwbRuEx0htVmUF-34" value="Project File" style="rounded=1;fillColor=#fff2cc;strokeColor=#d6b656;dashed=1;" vertex="1" parent="1">
          <mxGeometry x="641" y="913" width="121" height="38.5" as="geometry" />
        </mxCell>
        <mxCell id="JjUZZSlwbRuEx0htVmUF-35" value="Related Campaigns" style="rounded=1;fillColor=#dae8fc;strokeColor=#6c8ebf;" vertex="1" parent="1">
          <mxGeometry x="780" y="914.75" width="111" height="36.75" as="geometry" />
        </mxCell>
        <mxCell id="JjUZZSlwbRuEx0htVmUF-36" value="Paid Media" style="rounded=1;fillColor=#f8cecc;strokeColor=#b85450;" vertex="1" parent="1">
          <mxGeometry x="911" y="914.75" width="111" height="36.75" as="geometry" />
        </mxCell>
        <mxCell id="JjUZZSlwbRuEx0htVmUF-47" value="" style="group" vertex="1" connectable="0" parent="1">
          <mxGeometry x="1104" y="698.5" width="143" height="269" as="geometry" />
        </mxCell>
        <mxCell id="JjUZZSlwbRuEx0htVmUF-41" value="" style="rounded=0;whiteSpace=wrap;html=1;dashed=1;dashPattern=12 12;" vertex="1" parent="JjUZZSlwbRuEx0htVmUF-47">
          <mxGeometry width="143" height="269" as="geometry" />
        </mxCell>
        <mxCell id="JjUZZSlwbRuEx0htVmUF-43" value="Report" style="ellipse;whiteSpace=wrap;html=1;fillColor=#f8cecc;strokeColor=#b85450;" vertex="1" parent="JjUZZSlwbRuEx0htVmUF-47">
          <mxGeometry x="22.5" y="43.5" width="98" height="61" as="geometry" />
        </mxCell>
        <mxCell id="JjUZZSlwbRuEx0htVmUF-45" value="Flow" style="ellipse;whiteSpace=wrap;html=1;fillColor=#e1d5e7;strokeColor=#9673a6;" vertex="1" parent="JjUZZSlwbRuEx0htVmUF-47">
          <mxGeometry x="29" y="149" width="98" height="61" as="geometry" />
        </mxCell>
        <mxCell id="JjUZZSlwbRuEx0htVmUF-48" style="edgeStyle=none;curved=1;rounded=0;orthogonalLoop=1;jettySize=auto;html=1;entryX=0.021;entryY=0.669;entryDx=0;entryDy=0;entryPerimeter=0;fontSize=12;startSize=8;endSize=8;" edge="1" parent="1" source="JjUZZSlwbRuEx0htVmUF-32" target="JjUZZSlwbRuEx0htVmUF-41">
          <mxGeometry relative="1" as="geometry" />
        </mxCell>
        <mxCell id="JjUZZSlwbRuEx0htVmUF-49" value="My Workspace" style="rounded=0;whiteSpace=wrap;html=1;fillColor=#fff2cc;strokeColor=#d6b656;" vertex="1" parent="1">
          <mxGeometry x="292" y="804" width="120" height="60" as="geometry" />
        </mxCell>
      </root>
    </mxGraphModel>
  </diagram>
</mxfile>
